<svg width="40" height="40" viewBox="0 0 40 40" fill="none" xmlns="http://www.w3.org/2000/svg">
<circle cx="20" cy="20" r="20" fill="url(#paint0_linear_2675_32)"/>
<path d="M28.8335 13.4995C28.0935 14.0214 27.2742 14.4206 26.4071 14.6817C25.9418 14.1466 25.3233 13.7674 24.6353 13.5952C23.9473 13.4231 23.2231 13.4664 22.5606 13.7193C21.898 13.9722 21.3291 14.4224 20.9308 15.0092C20.5325 15.5959 20.324 16.2908 20.3335 16.9999V17.7727C18.9755 17.8079 17.6299 17.5067 16.4165 16.896C15.2032 16.2852 14.1597 15.3839 13.379 14.2722C13.379 14.2722 10.288 21.2267 17.2426 24.3177C15.6512 25.3979 13.7554 25.9396 11.8335 25.8631C18.788 29.7267 27.288 25.8631 27.288 16.9767C27.2873 16.7615 27.2666 16.5468 27.2262 16.3354C28.0149 15.5576 28.5714 14.5757 28.8335 13.4995Z" fill="white"/>
<defs>
<linearGradient id="paint0_linear_2675_32" x1="-0.796875" y1="14.4443" x2="35.7839" y2="14.4619" gradientUnits="userSpaceOnUse">
<stop stop-color="#00C5EB"/>
<stop offset="1" stop-color="#B544FE"/>
</linearGradient>
</defs>
</svg>
